<svg version="1.1" id="Layer_1" xmlns="http://www.w3.org/2000/svg" xmlns:xlink="http://www.w3.org/1999/xlink" x="0" y="0" viewBox="0 0 425 179" xml:space="preserve"><style>@import url(https://fonts.googleapis.com/css?family=Merriweather:300,400,700|Roboto:300,500,700|Monoton);.st0{fill:#fff}.st1{font-family:Roboto;font-weight:700}.st2{font-size:12px}.st6,.st7{fill:#fff;stroke:#fff;stroke-width:.3;stroke-linecap:round;stroke-linejoin:round}.st7{fill:none}</style><text transform="translate(248.703 155.215)" class="st0 st1 st2">COACH:</text><text transform="translate(218.203 169.615)" class="st0 st1 st2">WARREN GATLAND (NZ)</text><text transform="translate(111.903 155.216)" class="st0 st1 st2">WALES</text><path id="SVGID_1_" class="st0" d="M180.5 50.4s9.1 76.1-49 88.5c-58-12.4-49-88.5-49-88.5S115.4 19.8 171 9c0 0 7.4 17.8 9.5 41.4z"/><defs><path id="SVGID_2_" d="M180.5 50.4s9.1 76.1-49 88.5c-58-12.4-49-88.5-49-88.5S115.4 19.8 171 9c0 0 7.4 17.8 9.5 41.4z"/></defs><clipPath id="SVGID_3_"><use xlink:href="#SVGID_2_" overflow="visible"/></clipPath><g clip-path="url(#SVGID_3_)"><path fill="#24b865" d="M67.8 79.1h190.6v64.7H67.8z"/><path d="M221.9 44.4c-1 6.8 0 16.6 1.7 19.8-2-.7-4.3-2.5-5.4-4.7-.8 2.5-1.6 4.9-2.4 7.4 5 10.2-8.1 18.3-19 18.9 6.7 3.6 15.4 8.1 15.4 10.5-2.6 1-4.2-1.8-6.3-2.7 2.3 5.9.9 10.3-.3 16.1-1.1 1.4 0 2.3.5 3.4 1.1.4 2.1.8 3.2 1.2.2.1.3.3.5.4 0 0 2.2.1 2.8 3.2-1.5-1.8-3.5-1.2-3.5-1.2-.3.2-.5.3-.8.5-.6-.3-1.2-.7-1.8-1.1-2-1.3-4-1.2-6.1-.3-1.1.7-2.2.6-3.2.1-1.2-1.3-3.8-.2-3.9-.2l-2.8 1.8-.7-.1s-1.8-.1-4.1 1.4c.6-3.1 2.8-3 2.8-3-.2-.6.3-.5.4-.8.8-.8 2.3-.7 3.5-1l-6.6-.3c0-.1.1-.2.1-.3-1.4-.1-2.6-.2-3.4 1.2-.1-2.3 1.8-2.7 3-3.2.6-.8 1.7-.7 2.9-.6 0 0 6.3 2.3 5.8 2.2-.5-.2-7.4-3.1-7.4-3.1-.3-.5.1-.8.1-.9 0 0-1.9-1.2-3.2.1.2-2.7 3.5-2 3.5-2 .2-.9 1-.8 1.5-.4.8.8 1.7 1.6 2.5 2.4.8.5 1.6 1 2.3 1.5 2.2 1 4.5.6 6.4-2.5-.7-1.6-.4-2.3 1.1-3.2-.4-1.1-.2-2.2.2-3.2-.6-1-1-3.6-.4-4.3-1.5-.5-2-2-2.1-2-1.3.3-2.5-.2-3-.7-2.1.9-3.8.4-5.2-.8-2.4.8-4.6.2-5.7-.8-1.8.4-4.7-.9-5.2-2.3-1.1 0-2.1-1.2-3.3-1.1-.9 1.5-1.2 1.4-2.6 2.6-1.4 1.5-.9 4 .2 5.2 1.8.7 3.6 1.4 5.3 2 4.1.2 5 2.6 5 4.8-1.5-.5-1.6-.7-2.3-.8-1.1-.4-2.1-.8-3.2-1.1-3.3 5.3-7.9 9-14.6 10.7 1.3.6 2.5.4 3.8.6.5.3.9.5 1.4.8 2 .4 3.4 1.1 3.3 2.9-1.3-1.5-2.6-1.4-3.6-.7-2.1.9-3.3-1.1-5-1.6-1.4-1-2.8-.6-4 .1-1.4-.9-3-.4-4.6-.3-2 .2-4.2.7-5.2 1.8-.7.5-.9-.3-1-.2-2.3-.8-3.3 1.3-3.3 1.3-.5-2.3.6-2.8 1.9-3.2-.9-.5-1.7-1-2.6-1.5-.1-.3-.2-.3.2-.5-1-.6-2-.1-3.1.9.1-2.1 2.7-3.4 3.8-2.7.8-.6 2.2-.7 3.3.2 1.2.9 3 1 4.2.7-.5-1.4-2.2-2.3-3.1-2.3-1.3-.3-2.8-.8-2.4-1.6-.8-1.2-2-.8-3.3.1.5-2.6 3.2-2.4 4-1.8.3-.8 1.1-1 1.8-.2 1.1.3 1.3 1.1 1.9 1.6 1.2 1.3 3.2 1.9 4.8 2.2 1.5-.8 3.2-1 5-1 .3-1.5 1.3-1.8 2.6-1.8-.1-1.3.6-1.9 1.8-2.4 0 0-1.9-.2-2.1-1.4-3.3 0-5.4-.5-5.7-2.6-3-.9-4.8-3.2-3.6-5.6-1.5.5-2.4.5-3.7 0-2.1 1.8-5.3 4-7.2 2.8-.9 1-3.1 2.1-3.1 2.1-.3 2.3-2 5.1-2 5.1-.9-2.2-2.6-4.6-2.4-6.8-3 3.9-4.7 5-7.1 7.5-1.9 1.9-2.9 4.2-3.6 6.8 1.4.8 3.2.7 4.9 1 .4.6.3.3.5.5 1.7 0 3 1 3 2.8-1.6-1.6-3.1-.6-3.1-.6-1.3 1.1-2.9.6-4.4 0-1.3-1.4-3.3-2.2-4.9-1-2 1.6-2.9-.8-5.9.9-2.2 2-5.2 2.2-6 1 0 0-1.5-.6-3.7 1.7.6-3.7 2.9-3.3 2.9-3.3 0-.4-.1-.8-.1-1.2l-.9-.3c-1.5-.7-3.5-.5-4.3.2.6-2.4 2.8-2.4 4.5-2.2.3-.3.6-.7.9-1-.7-.3-.5-.7-.4-1.2-.9-.9-1.6-1.1-2.8-.2.4-2.3 2.6-2.2 4.2-1.2.8-.5 2.7.5 3.9 1.2 3.6 1.2 5.9 1.4 9.5-3.3 0-2.2.2-3.1 2.1-4.4-.7-1.3-.3-2.7 1.5-3.4-.7-.6-.2-1.5.3-2.5-2.7-.1-5.7.2-7.8.9-.7 2.1-1.6 4.3-3.1 5.7 0-5.5-3.1-9.4-7-13.6-4.4-2.9-6.4-8.7-6.8-10.6-.8 2.1-1.4 2.5-1.4 2.5-1 1.1-.3 3.5-2.3 3.6-1.9 2.3-4.2 1-4.2 1 2.2-.3 2.5-1.2 2.9-2.6-1.4-.3-.2-1.5.5-1.9.4-.1 1.5-2.8 2.2-2.7.3-2.7.6-5.3.9-8-1.7-.7-2.9-1.9-2.8-3.8-.6-.8-1.1-2-.2-2.5-.4-1-.8-2.1-2.3-2.5 3.3-.6 3.8 1.4 4.6 1.6 1 .6 1.7 4 2.8 5.7-.9-2.9-.4-4.9.5-7.4 0-1.4-.6-2.7-1.9-3.5 2.9-.1 4 2.9 4.1 3 1.8 2.3-.6 4 .2 5 .6-.4.8-1.4 1.7-1.3.7-.8 1.2-1.6 1.2-3.3 1.7 1 1.3 2.5.8 3.9.1 2.2-.2 2.7-1.6 3.5-1.4.8-1.7 1.5-1.5 2.6 1.7 1.9 2.1 7.6 2.1 7.6 1.7.5 2.4 2 2.3 3.3 1.7-.2 3.2 1.1 3.4 2.3 1-.9 2.3-.1 3.3.9.3-.5 1.1-.7 1.8-.5 0-.9.5-1.5 1.3-2.2-2-1.5-2.5-5.3-.3-7.3-.4-2.8.4-5.4 1.8-5.7-.5-3 1.4-4 2.1-4.7-.5-1.4 1.1-4 1.9-4-.9-1.4.7-4.1 2-4.3l-.9-2s-4.1.6-4.9 4.4c-.5-.8-1-2-1-2s-1.6 4.4-1.7 4.3c-1.4-.9-.8-3-.8-3-1-1.1-.8-2.6-1.3-3.9-3.9-.2-7.7-.3-11.6-.5l1.3 2.4c-1.4 0-8.1-5.7-9.4-10.6 3.5 2.7 7.1 3.4 11 4.2-1 .5-2.1 1-3.1 1.5 10.7.9 21.8-1.1 21.7-1.1-1.2-2.5-5.1-2.5-5.1-2.5v1.7c-.4-.3-.7-.5-1.1-.8 0 .4 0 .9-.1 1.3-.3-.2-.5-.4-.8-.6-.1.4-.2.7-.3 1.1-.3-.2-.5-.4-.8-.6-.1.3-.2.6-.4 1-.3-.2-.6-.5-.9-.7 0 0-.8 0-.8-.1-.5-2.5-2.9-2.6-2.9-2.6-2.8-.4-5 .2-7.5.3 3.7-4.6 8.7-4.2 13.6-4.7.3-2.1 2.1-2.6 4.3-2.9l9.9.5c1.3-1.7 5.2-2.4 5.2-2.4 1.4-.7 2.9-.4 4.2-2.1-.3 2.3-.3 2.8-.5 4.2.4 0 .9.1 1.3.2-1.1.7-2.7 1.8-3.8 2.5-1.3 1.9-1 2-.5 3 .4.7.8 1.4 1.2 2 2 .6 3.4 1.4 3.9 2.7-2.1-.3-3.7.1-3.6 1.1 0 .7 1.7 1 2.3 1.4 1.2 1.1 1.6 2.2 1.7 3.6-1.6-.1-3.6-2.4-4.7-.3-.5 1.1.1 2.5 1.4 3 2.5.7 2.7 4.1 2.7 4.1-.1 0-5.5-3.6-5.2-.2-.1 1.5.6 1.8 1.2 2.3 1.6.6 3 1.3 2.8 3-2.3-.8-3.5-.2-3.7 1.2.3.9.6 1.8.9 2.6 3.2-.7 6.4-1.3 9.5-1.9 1.4-1.3 2-3.4 1.9-5.6.2-3.4-1-6.3 3.2-10.1 9-7.5 18.1-13.3 28.2-18.9-2.1 3.4-3.5 9.8 1.9 10.3 1.7 0 20.7-8 20.7-8-6.6 4.8-14.2 11.6-5.4 14.5-8.1 2.5-14.8 10.7-8.9 17.3-4.2-1.2-9.7 1.5-10.7 4.6 4.8 0 9.1-.3 13.7 1.3 0 0 12.7 2.5 13.5-3.1-6.8 1.5-11.8.8-12-5.3.1-5.3 7.9-8.2 14.6-4.3.7-1.4 1.4-2.8 2-4.3-2.5.3-4.7.7-7.2.1 5.4-4.6 10.2-9.4 14.6-14.8z" fill="#24b865" stroke="#fff" stroke-width=".75" stroke-linecap="round" stroke-linejoin="round"/><path class="st6" d="M209.4 68.5c.1 2.2-6.5 2.7-6.9.3-.1-1.3 3.3-3.4 6.9-.3z"/><path class="st7" d="M219.2 53.5s-.4 5-1 6.1M216.8 53.7l-2.1 5.7M212.7 63.7c.4.3 2.1 1.2 3.1 3.2M209.5 68.5s2 3.8.6 4.8M187.3 78.2c3-.4 7.3 6.3 9.5 7.6M209.5 114.6s-1.2.9-.6 2.1M188.5 115.7s1.5.4 1.3 1.7M185.5 111.3s1.1 1.1.4 2.1M187.2 107s1.4.7-.3 1.9M169.2 114.5s-1.3 1.1-.3 2.2M147.9 114.8s2.3.1 1.5 1.8M146.2 111s.8 1.4-.7 1.8M149.1 106.3s.7 1.5-.7 1.7M147.4 114.5s2.2-1.9 3.2-.9c1 1 5.4-.9 5.4-.9M157.5 109.9l-3.6 1.9M162.6 108.9s2.6 2.9 4.6-.6M165.2 107.1c1.8 1.4 1.1 2.3 6.7-1.5"/><path class="st7" d="M166.9 104.7s4.8.5 5 .9c.6-.6 4.9-4.1-.4-4.6-.9 3.6-4.5 3.8-4.6 3.7zM109.6 115.5s1.8.3.7 1.7M108.8 112.1s1.3.8-.2 1.9M110.8 108.5s.6 1.6-1.4 1.4M109.5 114.3s2.5-2 3.8-.8c1.3.4 1.9.4 1.9.4M131.7 114.2s-.7 1.5-.1 2.2M109.7 111c1.6-.1 1.9.6 3.3.6 1.6 0 3.2-.6 5.3-1.2M99.2 64.2s1 .5 2-1M98.6 82.9s1.6.5 1.3 1.7M104.8 61.5s0 1 2-.5M106.9 66s-1.5 4.1.3 5M108.7 64.8s.8 1.7 1.9.7M107.1 54.1l-1.3-2 1.2-.4M119.6 43.8s1.2 1.5 1.3 2.4c0 .9-.9 1.5-.9 1.5M118.7 45.7s-.3.9-.4 1.5c0 .4-1.4 1-1.4 1M135.3 41.2s-.2 1.2-.8 1.9M123.5 44.4s2.5-.7 3-.1c1.3.1 3.6.6 3.6.6s2.2-.3 3-.8M124.8 44.2c-.3 1 2.1 3.9 4.2.4"/><path class="st6" d="M125.6 44.1l2.3.4s-1.6 2.2-2.3-.4z"/><path class="st7" d="M128.7 50.6l3.1 5.9 1.5-2.2.8 1.5 1.3-2.2 2.2 1.4-.8-2.7 1.8-.1s-.5-1.3-2.1-1.6c.4-.3 1.9-1.3 1.9-1.3s-.8-1-2.2-1c.4-.5 1-1.6 1-1.6l-1.4-.3s3.1 1 5.5-.4"/><path class="st7" d="M118.7 54.7l4.7-.1c1.5 0 4-2.1 6.7-1.5"/><path class="st7" d="M119.4 54.6l.3-.9.3.8.4.1.9-.8.3.8h.4l.5-1 .5 1 .9-1.6 1 1.2.3-1.4.9.9.4-1.2.9.8.4-1 .5 1M139.1 45.2s-2.4-.1-2.3-1.1c.2-1.1 2.6-1.8 2.6-1.8s3.2-2 3.6-2.7M139.7 41.1s.8-.8 2.1-.4M120.3 85.1s-.3 1.5 1.8 4.5c-.6 3.4 2.6 6 3.8 6.5M109.5 79c-2.4 1.3 1.3 9.8 12.7 10.6M118.5 85.5s.8 2.5.1 3.7M115.3 84.6s-.9 1.8-1.2 2.7M111.9 82.3s-.7 1.5-1.6 1.9M151.9 71s3-.1 6.1-8.3c3-11.2 26.7-23.8 27.1-26.1M160.6 57.7c4.5-2.5 18.2-7.5 27.3-11.2"/><path class="st7" d="M206.7 39.2S164.6 58.8 164 59.9c7.1-2.2 37.2-7.2 38-6.7-1.8.4-38.3 8.8-40 10.8 9.1-.3 28.2 2.9 31.2 6-6.5-1.4-25.9-4.3-31.8-3 4.4 1 21 11.8 21 13.5-2.5-2.4-22.5-10.6-23.3-9.9 4.6 2.8 11.1 13 11.1 15.5-1.4-2.1-12.9-14.6-13.6-13.8 1.2 1.7 3.6 16.4 2.4 17.1 0-1.8-4.5-14.6-4.9-15-.9.2-6.6 15.7-5.5 17.1-.7-5.1.1-15.9 1.5-15.5-2.5.4-10.5 10.9-9.7 12.6.2-2.6.6-4.4 5.1-13.1-5 .3-15.4 6.9-17.2 9.2 1.4-4.2 10.2-11.2 14.1-11.7M128.4 54.8h2.5M118.4 50.2s1.7.6 5.2-2.1"/><path class="st7" d="M129.8 82.2c-1-1.3.8-21.2 4.5-26.4-1.3 9.4 3 19 4.1 19M129.2 56.7s1.8 1.9 3.8 1.6M127.2 61.1s.9 1.5 4.2 1.8M125.3 65.1s2.3 2.8 5.3 2.4M123.2 69.9s.6 2 6.7 2.2M121.5 75.6s2.8 2.5 8.1 1.7M121.8 82.9s3.6 2 8-.7M182.7 75s-2.5 2.1-.2 5.6c-7.8-.1-12 3.5-12.3 5.9-9.9-.7-8.1 2.2-11.3 3.2-4.3-3.6-10.6-1.6-10.2 2-2.9-4.1-7.3-2.1-7.9-1.1-.5 1-.3-5-.3-5s-2.9 1.3-4.9 3.7v-5c-2.4.5-4.8.5-7.2.5M130.5 84.8s-4.2 6.5 2.3 8.2"/><path class="st7" d="M140.4 88.6s-1.1.5-1.4.4c-1.3.3-1 3.2.6 3.1.6-.6 1.1-1.5 1.1-1.5"/><path class="st7" d="M138.1 90.4s-.5.6-1.2 0c-.4-.7-1.7 3 .6 3.1.4-1.1 1.7-1.4 1.7-1.4M136.2 91.7c-1.8-.1-2.9 3.9.7 1.4"/><path class="st7" d="M134.9 92.3s-2.1-1.6-2 .6c0 1.4.6 1.7.6 1.7.1 1 1 2.4 1.7 1.1.3-1.3-.2-1.8-.2-1.8M124.1 106.4s.3 2.8 2.3.7c1.3-2.8 5.6-10.7 6.5-13.4"/><path class="st7" d="M130 91.4s-3 .8-1.8 4.4c1.7 1.4 3.4 1.2 3.4 1.2M127.8 98.5s2 .9 2.7.6M126.3 102s.9 1.6 2.2 1M142.2 89.6s.3 4.2-1 5.7.3 4.6.3 4.6M145.4 89.4c0 .1.8 6.7-.9 8.6M151.8 88s2.5 4.8 0 7.1M158.9 89.5s-1.4 4.2-3.4 5.7M165.9 89.7s-6.6 11.3 5.6 11.3M156.9 93.7s6.8 0 7.2 1.3M159.1 100.7c.1-.1 4.9-.5 5.7-2.3M164.8 103.3s2.9-1.7 2.4-2.9M164.6 86.4c.3 4.4-5.1 6.9-7.2 6.5M164.2 89.1s3.8 1.8 7-1.1M170.3 86.5s1.4 2.6 3.1 2.4c2.3-.7 3.1.7 3.1.7M179.8 80.7s-.2 6.4 8.8 7.7c10 2.8 14.7 1.3 15.3 12.5-.4 4.3-.9 9.1-4 7.2M201 104.9s1.5 1.2 2.5-.4M201.2 101.6s1.8.3 2.7-1.4M200.7 97.3s2 .5 2.6-.8M200.8 92.1s-1.5 2.9-2 3.2M196.9 90.2s.1 3.1-1.2 4.4M192.7 89.5s-.1 2.6-2.2 4.4M184.8 93.1s3.4-3.8 2.6-4.9M183.6 86.7s-.4 3.6-4 4.1M129.5 79.7s6.9-4.2 7.3-7.2M129.7 76.1s4.3-1.1 6.1-5.9M129.9 73.4c.4.2 5.1-3.3 5.2-5.8M130.1 70.4c1.4-.4 3.9-3.5 4.4-5.1M130.8 67s2-1.4 3.5-3.5M131.5 63.1c0 1.1 1.8-.4 2.5-1.4M135.4 75.1l.9 1.1M133.7 76.8l.5.8M131.7 78.4l.7 1M130.6 79s0 1.4.7 1.4M130.9 75.6s.8 2.6 1.4 2.1M132.8 74.4c0 .1.8 2.4.8 2.4M134.5 72.9l1 2M133.3 70.9s1.1 1.6 1.4 1.4M131.8 72.3s.6 2.3 1.1 2.1M129.8 74.1l1.1 1.6M131.4 69.6s.4 2.4.7 2.3M132.8 68.2c0 .1 1.1 2.1 1.1 2.1M130.6 67.9l1.2 1.3M132.3 65.9l1 1.6M132.8 63.1s0 1.8.4 1.8M131.9 61.7l.9 1.4"/></g><g><path d="M180.5 50.4s9.1 76.1-49 88.5c-58-12.4-49-88.5-49-88.5S115.4 19.8 171 9c0 0 7.4 17.8 9.5 41.4z" fill="none" stroke="#fff" stroke-width="1.25" stroke-linecap="round" stroke-linejoin="round" stroke-miterlimit="10"/></g><image width="600" height="649" xlink:href="../img/warren-gatland-wal.png" transform="matrix(.188 0 0 .188 221 13)" overflow="visible"/></svg>