<svg version="1.1" id="Layer_1" xmlns="http://www.w3.org/2000/svg" xmlns:xlink="http://www.w3.org/1999/xlink" x="0" y="0" viewBox="0 0 425 179" xml:space="preserve"><style>@import url(https://fonts.googleapis.com/css?family=Merriweather:300,400,700|Roboto:300,500,700|Monoton);.st0{fill:#fff}.st1{font-family:Roboto;font-weight:700}.st2{font-size:12px}.st6,.st7{fill-rule:evenodd;clip-rule:evenodd;fill:#fff;stroke:#fff;stroke-width:2;stroke-linecap:round;stroke-linejoin:round;stroke-miterlimit:10}.st7{fill:#24b865}</style><text transform="translate(245.703 155.215)" class="st0 st1 st2">COACH:</text><text transform="translate(215.203 169.615)" class="st0 st1 st2">RASSIE ERASMUS (SA)</text><text transform="translate(86.41 155.216)" class="st0 st1 st2">SOUTH AFRICA</text><path id="SVGID_1_" d="M177.5 50.4s9.1 76.1-49 88.5c-58-12.4-49-88.5-49-88.5S112.4 19.8 168 9c0 0 7.4 17.8 9.5 41.4z" fill="#24b865"/><defs><path id="SVGID_2_" d="M177.5 50.4s9.1 76.1-49 88.5c-58-12.4-49-88.5-49-88.5S112.4 19.8 168 9c0 0 7.4 17.8 9.5 41.4z"/></defs><clipPath id="SVGID_3_"><use xlink:href="#SVGID_2_" overflow="visible"/></clipPath><g clip-path="url(#SVGID_3_)"><path fill-rule="evenodd" clip-rule="evenodd" fill="#fff" d="M259.6 59.1H158.3L80.9 7.4l178.6.1z"/><path class="st6" d="M129.2 72.8L47.5 18.3v109.1z"/><path class="st7" d="M113.3 72.8L47.5 28.9v87.9z"/><path class="st6" d="M259.6 86.6H158.3l-77.4 51.7h178.6z"/><path class="st7" d="M259.5 94.7H162l-69 45.9h162.8zM259.5 51H162L96.7 7.5h162.8z"/></g><g><path d="M177.5 50.4s9.1 76.1-49 88.5c-58-12.4-49-88.5-49-88.5S112.4 19.8 168 9c0 0 7.4 17.8 9.5 41.4z" fill="none" stroke="#fff" stroke-width="1.25" stroke-linecap="round" stroke-linejoin="round" stroke-miterlimit="10"/></g><image width="600" height="649" xlink:href="../img/rassie-erasmus-rsa.png" transform="matrix(.188 0 0 .188 218 13)" overflow="visible"/></svg>