<svg version="1.1" id="Layer_1" xmlns="http://www.w3.org/2000/svg" xmlns:xlink="http://www.w3.org/1999/xlink" x="0" y="0" viewBox="0 0 425 179" xml:space="preserve"><style>@import url(https://fonts.googleapis.com/css?family=Merriweather:300,400,700|Roboto:300,500,700|Monoton);.st0{fill:#fff}.st1{font-family:Roboto;font-weight:700}.st2{font-size:12px}.st5{fill:none;stroke:#fff;stroke-width:.75;stroke-linecap:round;stroke-linejoin:round}.st6,.st7,.st8{fill-rule:evenodd;clip-rule:evenodd;fill:#fff}.st7,.st8{fill:#ec1c24}.st8{opacity:.2;fill:#fff;enable-background:new}</style><text transform="translate(252.703 155.215)" class="st0 st1 st2">COACH:</text><text transform="translate(222.203 169.615)" class="st0 st1 st2">STEVE HANSEN (NZ)</text><text transform="translate(94.678 155.216)" class="st0 st1 st2">NEW ZEALAND</text><path id="SVGID_1_" d="M184.5 50.4s9.1 76.1-49 88.5c-58-12.4-49-88.5-49-88.5S119.4 19.8 175 9c0 0 7.4 17.8 9.5 41.4z" fill="#24b865"/><defs><path id="SVGID_2_" d="M184.5 50.4s9.1 76.1-49 88.5c-58-12.4-49-88.5-49-88.5S119.4 19.8 175 9c0 0 7.4 17.8 9.5 41.4z"/></defs><clipPath id="SVGID_3_"><use xlink:href="#SVGID_2_" overflow="visible"/></clipPath><g clip-path="url(#SVGID_3_)"><path class="st5" d="M177.2 50.3l.6-.4 4.5-3.3H176l-.3-.8-1.6-5.3-1.7 5.3-.3.8h-6.2l4.4 3.3.6.4-.2.8-1.7 5.3 4.4-3.2.7-.5.6.5 4.4 3.2-1.7-5.3zM152.8 74.7l.7-.5 4.4-3.3h-6.3l-.2-.7-1.7-5.4-1.7 5.4-.2.7h-6.3l4.4 3.3.7.5-.3.7-1.6 5.4 4.4-3.3.6-.5.7.5 4.4 3.3-1.7-5.4zM177 113.3l.6-.5 4.5-3.3h-6.3l-.3-.8-1.6-5.3-1.7 5.3-.3.8h-6.2l4.4 3.3.6.5-.2.7-1.7 5.4 4.5-3.3.6-.5.7.5 4.3 3.2-1.7-5.3z"/><path class="st6" d="M58.8 9.5v16.2l-32-16.2H12.7l37.1 18.7h-8.3L12.7 13.7v2.7l23.4 11.8H12.7v3.7h49.8V9.5zM12.7 42.6v3.7h23.4L12.7 58.2V65l37.1-18.7h8.3L20.9 65h5.9l32-16.2V65h3.7V42.6z"/><path class="st0" d="M123 42.6H73.1V65h3.7V48.8l32 16.2H123L85.8 46.3h8.3L123 60.8v-2.6L99.5 46.3H123z"/><path class="st6" d="M123 9.5L85.8 28.2h-8.3l37.2-18.7h-5.9l-32 16.2V9.5h-3.7v22.4H123v-3.7H99.5L123 16.4z"/><path class="st7" d="M49.8 28.2L12.7 9.5v4.2l28.8 14.5z"/><path class="st8" d="M85.8 46.3L123 65v-4.2L94.1 46.3z"/><path class="st7" d="M85.8 28.2L123 9.5h-8.3L77.5 28.2zM49.8 46.3L12.7 65h8.2l37.2-18.7z"/><path class="st8" d="M73.1 31.9V9.5H62.5v22.4H12.7v10.7h49.8V65h10.6V42.6H123V31.9z"/></g><g><path d="M184.5 50.4s9.1 76.1-49 88.5c-58-12.4-49-88.5-49-88.5S119.4 19.8 175 9c0 0 7.4 17.8 9.5 41.4z" fill="none" stroke="#fff" stroke-width="1.25" stroke-linecap="round" stroke-linejoin="round" stroke-miterlimit="10"/></g><image width="600" height="649" xlink:href="../img/steve-hanson-nz.png" transform="matrix(.188 0 0 .188 225 13)" overflow="visible"/></svg>