<svg version="1.1" id="Layer_1" xmlns="http://www.w3.org/2000/svg" xmlns:xlink="http://www.w3.org/1999/xlink" x="0" y="0" viewBox="0 0 425 179" xml:space="preserve"><style>@import url(https://fonts.googleapis.com/css?family=Merriweather:300,400,700|Roboto:300,500,700|Monoton);.st0{fill:#fff}.st1{font-family:Roboto;font-weight:700}.st2{font-size:12px}.st5,.st6,.st7{fill-rule:evenodd;clip-rule:evenodd;fill:#fff}.st6,.st7{fill:#ec1c24}.st7{opacity:.2;fill:#fff;enable-background:new}</style><text transform="translate(246.703 155.215)" class="st0 st1 st2">COACH:</text><text transform="translate(216.203 169.615)" class="st0 st1 st2">MICHAEL CHEIKA (AU)</text><text transform="translate(97.212 155.216)" class="st0 st1 st2">AUSTRALIA</text><path id="SVGID_1_" d="M178.5 50.4s9.1 76.1-49 88.5c-58-12.4-49-88.5-49-88.5S113.4 19.8 169 9c0 0 7.4 17.8 9.5 41.4z" fill="#24b865"/><defs><path id="SVGID_2_" d="M178.5 50.4s9.1 76.1-49 88.5c-58-12.4-49-88.5-49-88.5S113.4 19.8 169 9c0 0 7.4 17.8 9.5 41.4z"/></defs><clipPath id="SVGID_3_"><use xlink:href="#SVGID_2_" overflow="visible"/></clipPath><g clip-path="url(#SVGID_3_)"><path class="st5" d="M75 5.6v17.5L40.3 5.6H25l40.3 20.3h-9L25 10.1V13l25.4 12.9H25v4h54V5.6zM25 41.5v4h25.4L25 58.4v7.4l40.3-20.3h9L33.9 65.8h6.4L75 48.3v17.5h4V41.5z"/><path class="st0" d="M144.7 41.5H90.6v24.3h4V48.3l34.7 17.5h15.4l-40.3-20.3h9l31.3 15.8v-2.9l-25.5-12.9h25.5z"/><path class="st5" d="M144.7 5.6l-40.3 20.3h-9l40.3-20.3h-6.3L94.6 23.1V5.6h-4v24.3h54.1v-4h-25.4L144.7 13z"/><path class="st6" d="M65.3 25.9L25 5.6v4.5l31.3 15.8z"/><path class="st7" d="M104.4 45.5l40.3 20.3v-4.5l-31.3-15.8z"/><path class="st6" d="M104.4 25.9l40.3-20.3h-9L95.4 25.9zM65.3 45.5L25 65.8h8.9l40.4-20.3z"/><path class="st7" d="M90.6 29.9V5.6H79v24.3H25v11.6h54v24.3h11.6V41.5h54.1V29.9z"/><path class="st0" d="M89 98.2l10.5-3.7-6.1 9.5 9.5 5.9-11.2 1.1 1.3 11.1-7.9-8-7.9 7.9 1.4-11.2-11.1-1.2 9.6-5.9-5.9-9.4 10.5 3.8 3.7-10.5zM175.9 65l5.1-1.8-2.9 4.6 4.5 2.9-5.4.5.6 5.4-3.8-3.9-3.8 3.8.7-5.4-5.4-.6 4.6-2.8-2.8-4.6 5.1 1.8 1.8-5.1z"/></g><g><path d="M178.5 50.4s9.1 76.1-49 88.5c-58-12.4-49-88.5-49-88.5S113.4 19.8 169 9c0 0 7.4 17.8 9.5 41.4z" fill="none" stroke="#fff" stroke-width="1.25" stroke-linecap="round" stroke-linejoin="round" stroke-miterlimit="10"/></g><image width="600" height="649" xlink:href="../img/michael-cheika-aus.png" transform="translate(219 13) scale(.1879)" overflow="visible"/></svg>