<svg version="1.1" id="Layer_1" xmlns="http://www.w3.org/2000/svg" xmlns:xlink="http://www.w3.org/1999/xlink" x="0" y="0" viewBox="0 0 425 179" xml:space="preserve"><style>@import url(https://fonts.googleapis.com/css?family=Merriweather:300,400,700|Roboto:300,500,700|Monoton);.st0{fill:#fff}.st1{font-family:Roboto;font-weight:700}.st2{font-size:12px}</style><text transform="translate(254.703 155.215)" class="st0 st1 st2">COACH:</text><text transform="translate(224.203 169.615)" class="st0 st1 st2">EDDIE JONES (AU)</text><text transform="translate(110.38 155.216)" class="st0 st1 st2">ENGLAND</text><path id="SVGID_1_" d="M186.5 50.4s9.1 76.1-49 88.5c-58-12.4-49-88.5-49-88.5S121.4 19.8 177 9c0 0 7.4 17.8 9.5 41.4z" fill="#24b865"/><defs><path id="SVGID_2_" d="M186.5 50.4s9.1 76.1-49 88.5c-58-12.4-49-88.5-49-88.5S121.4 19.8 177 9c0 0 7.4 17.8 9.5 41.4z"/></defs><clipPath id="SVGID_3_"><use xlink:href="#SVGID_2_" overflow="visible"/></clipPath><path clip-path="url(#SVGID_3_)" fill="#fff" d="M190.2 60.4h-39.3V2.6h-26.6v57.8H84.9V87h39.4v57.8h26.6V87h39.3z"/><g><path d="M186.5 50.4s9.1 76.1-49 88.5c-58-12.4-49-88.5-49-88.5S121.4 19.8 177 9c0 0 7.4 17.8 9.5 41.4z" fill="none" stroke="#fff" stroke-width="1.25" stroke-linecap="round" stroke-linejoin="round" stroke-miterlimit="10"/></g><image width="600" height="649" xlink:href="../img/eddie-jones-eng.png" transform="matrix(.188 0 0 .188 227 12.912)" overflow="visible"/></svg>